PathFileType	4	(X/Y/Z)	../Python\walking\Walking16\task.trc
DataRate	CameraRate	NumFrames	NumMarkers	Units	OrigDataRate	OrigDataStartFrame	OrigNumFrames
200.000000	200.000000	4	30	mm	200.000000	169	452
Frame#	Time	C7			RBAK			CLAV			STRN			RASI			LASI			PE01			RTH1			RTH2			RTH3			RD5M			RTOE			LTH2			LTH3			LTB2			LTB3			LHEE			LTOE			LD5M			LTB1			RTB2			RHEE			RTB3			RTB1			LTH1			LPSI			PE03			PE02			RPSI			T10			
		X1	Y1	Z1	X2	Y2	Z2	X3	Y3	Z3	X4	Y4	Z4	X5	Y5	Z5	X6	Y6	Z6	X7	Y7	Z7	X8	Y8	Z8	X9	Y9	Z9	X10	Y10	Z10	X11	Y11	Z11	X12	Y12	Z12	X13	Y13	Z13	X14	Y14	Z14	X15	Y15	Z15	X16	Y16	Z16	X17	Y17	Z17	X18	Y18	Z18	X19	Y19	Z19	X20	Y20	Z20	X21	Y21	Z21	X22	Y22	Z22	X23	Y23	Z23	X24	Y24	Z24	X25	Y25	Z25	X26	Y26	Z26	X27	Y27	Z27	X28	Y28	Z28	X29	Y29	Z29	X30	Y30	Z30	

170	0.845	-375.0834960937501	1353.696166992188	134.3131713867188	-420.8654479980471	1260.281127929688	250.1570587158204	-253.7164916992189	1258.165771484375	135.6374053955079	-191.5473175048829	1075.397094726563	151.9019012451172	-232.5038909912111	871.3779907226567	279.892059326172	-214.1598052978517	880.8112792968755	53.97409439086917	-419.4624023437502	951.527954101563	168.4770812988282	-262.020965576172	577.8626098632815	323.3406066894532	-229.7051391601564	505.3689270019534	315.6870117187501	-213.1253967285157	564.7338867187502	319.6895446777345	-511.4108581542971	85.44085693359378	257.5225219726564	-478.0557250976565	64.22005462646487	217.208953857422	-254.9794006347657	557.1594238281252	31.74953079223634	-189.6891479492188	602.1236572265627	31.29677009582521	-267.1364135742189	206.8571624755861	66.12964630126956	-227.3860015869142	234.1001281738282	70.16059112548831	-308.1893310546876	34.02996826171876	128.5005645751954	-116.0436630249024	29.8870086669922	136.5995483398438	-156.2860565185547	14.51099872589112	84.51863098144534	-259.2813415527345	284.4558105468751	52.43189620971683	-377.4861450195314	326.615447998047	288.0777282714845	-554.3218994140627	218.3588104248048	178.6403961181641	-378.8487548828126	276.2864990234376	276.7435302734376	-315.3908996582032	321.9473876953126	292.9394836425782	-235.7160644531251	614.414733886719	17.62792205810548	-419.9104309082034	918.2072143554692	122.3288116455079	-430.0185852050784	895.0442504882817	134.2956542968751	-435.3255310058596	889.0314941406255	183.7621612548829	-424.0275573730471	914.0452270507817	209.9940643310548	-402.6189270019534	1055.84326171875	161.4702301025391	
171	0.85	-368.8186340332032	1354.79638671875	134.3643951416016	-415.2434082031252	1261.051025390625	249.5500488281251	-247.4961700439454	1259.296142578125	136.1880950927735	-185.4832000732422	1076.528442382813	152.2486419677735	-226.7328643798829	872.6682739257817	279.4773559570314	-208.1421813964845	881.503540039063	53.52160263061526	-413.5338439941409	952.572875976563	167.5849151611329	-251.6798858642579	579.6357421875002	323.0268859863282	-218.0421142578126	507.7080688476565	315.3843688964845	-202.5247192382814	567.3535156250002	319.5077209472657	-490.5625000000002	84.02024841308597	259.0090637207032	-456.3676452636721	63.89614486694339	218.7565307617189	-251.7363128662111	557.6346435546877	31.57047080993654	-185.9611968994141	601.8689575195315	31.57633590698244	-266.5078735351564	206.9944763183595	66.03794860839847	-226.7096099853517	234.0944671630861	70.10272979736331	-308.1580200195314	34.11867141723634	128.5323791503907	-116.0064239501954	29.86405563354494	136.603988647461	-156.2805175781251	14.4785442352295	84.50521087646487	-258.3535461425782	284.554168701172	52.36680984497073	-363.0227050781251	326.8223266601564	288.0528564453126	-539.8887329101565	214.4544372558595	178.9341735839844	-363.8102416992189	276.5212707519532	276.5066528320314	-300.8806152343751	323.0507812500001	292.5200805664064	-231.7058563232423	614.7859497070315	17.58469581604005	-413.9416503906252	919.1897583007817	121.5022811889649	-424.2918090820315	895.988891601563	133.5127105712891	-429.5226745605471	890.1537475585942	183.0559082031251	-418.2140197753909	915.1433715820317	209.1495208740236	-396.5343933105471	1056.929077148438	160.4342041015626	
172	0.855	-362.5762023925782	1355.834106445313	134.4264526367188	-409.6302185058596	1261.765502929688	248.9508361816407	-241.3014678955079	1260.36474609375	136.7383117675782	-179.4452667236329	1077.605346679688	152.5760040283204	-220.9485321044923	873.9213256835942	279.049285888672	-202.124969482422	882.1692504882817	53.06156921386722	-407.6099853515627	953.5603637695317	166.7088623046876	-241.4340667724611	581.4232177734377	322.6563720703126	-206.5198516845704	510.0781555175784	314.9974060058595	-192.0401611328126	569.9785156250002	319.2583923339845	-469.5751647949221	82.481071472168	260.4843750000001	-434.562194824219	63.46755218505862	220.3197021484376	-248.5137329101564	558.076843261719	31.45222473144533	-182.255844116211	601.5678710937502	31.87689781188966	-265.8900756835939	207.1394653320314	65.98307800292972	-226.0400390625001	234.0958099365236	70.08435821533206	-308.1251525878907	34.2070770263672	128.5767669677735	-115.9657974243165	29.8443946838379	136.6214294433594	-156.2752990722657	14.46102714538575	84.50363922119143	-257.4322204589845	284.6639404296876	52.34060287475589	-348.4876708984376	326.7603759765626	288.0523376464845	-525.0841064453127	210.1629943847657	179.2778625488282	-348.6387329101564	276.5306091308595	276.2431030273439	-286.3303222656251	324.0299072265626	292.0442504882814	-227.7083892822267	615.1097412109377	17.58588600158692	-407.9782409667971	920.1042480468755	120.7030029296876	-418.5606384277346	896.8647460937505	132.765121459961	-423.7065734863284	891.217651367188	182.3879699707032	-412.3887329101565	916.1919555664067	208.3434600830079	-390.4627990722659	1057.952270507813	159.4189758300782	
173	0.86	-356.3550720214845	1356.805297851563	134.4980621337891	-404.0237121582034	1262.421630859375	248.3595581054689	-235.130828857422	1261.368530273438	137.285873413086	-173.430648803711	1078.624633789063	152.8823852539063	-215.1457366943361	875.1331176757817	278.6072082519532	-196.1047973632814	882.8027954101567	52.59466552734378	-401.6885375976565	954.4861450195317	165.8520660400391	-231.3005981445314	583.214538574219	322.2300415039064	-195.1609344482423	512.4656372070315	314.5282287597657	-181.6893920898438	572.595153808594	318.9453125000001	-448.461120605469	80.82914733886722	261.9368286132814	-412.6654052734377	62.94241714477542	221.8765258789064	-245.311737060547	558.484313964844	31.39105606079103	-178.5757751464844	601.2274169921877	32.19432830810548	-265.2950439453126	207.2918853759767	65.96429443359378	-225.3836364746095	234.1043548583986	70.09619903564456	-308.0921936035157	34.29407119750978	128.6326141357422	-115.9224700927735	29.82812500000001	136.6506347656251	-156.2705383300782	14.45639419555665	84.51374053955081	-256.5324096679689	284.7855224609376	52.35086822509768	-333.8845214843751	326.4272460937501	288.0822753906251	-509.9022216796877	205.5018463134767	179.6743316650391	-333.3392333984376	276.3159179687501	275.9534301757814	-271.7488403320314	324.8783569335939	291.5175170898439	-223.7328948974611	615.3837890625002	17.6277027130127	-402.0171813964846	920.948120117188	119.9328536987305	-412.820007324219	897.6679687500005	132.0560760498047	-417.8736267089846	892.2186889648442	181.760238647461	-406.5488586425784	917.1857299804692	207.5776367187501	-384.4019165039065	1058.908569335938	158.426254272461	
